<svg version="1.2" xmlns="http://www.w3.org/2000/svg" viewBox="0 0 1154 1096" width="1154" height="1096"><defs><clipPath clipPathUnits="userSpaceOnUse" id="cp1"><path d="m1403 0h-1403v1555.02h1403z"/></clipPath><linearGradient id="P" gradientUnits="userSpaceOnUse"/><linearGradient id="g1" x2="1" href="#P" gradientTransform="matrix(3217.574,1027.45,-2289.737,7170.565,-139.764,1497.86)"><stop stop-color="#d35d15"/><stop offset=".03" stop-color="#d96212"/><stop offset=".15" stop-color="#ea720a"/><stop offset=".29" stop-color="#f67c05"/><stop offset=".49" stop-color="#fd8301"/><stop offset="1" stop-color="#ff8501"/></linearGradient></defs><style>.a{opacity:.6;fill:url(#g1)}</style><g clip-path="url(#cp1)"><path class="a" d="m317.7 3401.3c136.7 483.9 352 1210.4 535.8 1582.8 311.9 631.7 475.5 846.6 722.6 1190.8 11.3 15.8 24.2 23 37.1 20.6 63.9-11.7 84.8-221.3 30.6-307.3q-9.5-15.2-19.1-30.5c-384.7-620.6-740-1421.4-957.3-2435.2 140.2 468.4 305.8 885.4 491.6 1238.7 177.8 338.7 373.2 618.9 578.1 839.5 82.6 88.2 166.8 167.9 252.2 237.9 33.4 27.3 69.9-7.1 87.9-82.7q0.4-1.7 0.8-3.4c24.3-102.2 5.5-234.7-39.2-274.8-232.3-208.6-912.7-946.9-1290.2-2701.1-322.5-1498.5 718.7-3168.9 1370.8-4034.4 43.1-57.2 14.9-221.5-31.3-182.1-592.3 505.5-1544.8 1434.1-2040.4 2534.9-643.6 1429.7-289.4 2954-173.7 3364.5 18.6 65.7 50.6 98.8 82.2 84.9l55.2-24.2c22.2-9.8 45.2 3.7 63.4 37.3 36.3 66.9 105.6 192.3 197.8 346.8 24.6 41.1 53.5-34 36.4-94.4l-81.1-285.9c-62.5-235.6-122.5-486.2-176.4-734.8 0 0 335.7 1107.7 823.7 1994.3 1.3 2.4 2.9 3.5 4.4 5.4 46.7 56.7 89.3-93.1 52.8-185.6 0 0-488.6-1204.4-614.7-2102z"/></g></svg>