<svg width="1920" height="2144" viewBox="0 0 1920 2144" fill="none" xmlns="http://www.w3.org/2000/svg">
<mask id="mask0_50_702" style="mask-type:luminance" maskUnits="userSpaceOnUse" x="-1306" y="0" width="3506" height="2210">
<path d="M2199.84 0H-1305.34V2209.58H2199.84V0Z" fill="white"/>
</mask>
<g mask="url(#mask0_50_702)">
<path opacity="0.58" d="M-511.617 4088.85C-170.088 4581.38 367.831 5320.92 827.102 5699.93C1606.29 6342.96 2015.06 6561.63 2632.34 6912.01C2660.61 6928.08 2692.83 6935.41 2725.06 6933.02C2884.68 6921.13 2936.77 6707.74 2801.5 6620.22C2785.59 6609.91 2769.69 6599.55 2753.83 6589.16C1792.69 5957.51 904.917 5142.34 362.043 4110.41C712.44 4587.22 1126.2 5011.65 1590.39 5371.32C2034.55 5716 2522.63 6001.23 3034.53 6225.78C3240.91 6315.52 3451.25 6396.69 3664.75 6467.89C3748.19 6495.71 3839.2 6460.73 3884.37 6383.74C3885.04 6382.58 3885.7 6381.43 3886.37 6380.28C3947.03 6276.23 3899.94 6141.37 3788.49 6100.59C3208.14 5888.23 1508.16 5136.76 564.97 3351.19C-240.784 1825.96 2360.59 125.742 3989.67 -755.261C4097.38 -813.508 4026.89 -980.71 3911.56 -940.614C2431.62 -426.056 52.1155 519.032 -1186.01 1639.5C-2794.15 3094.84 -1909.21 4646.27 -1619.97 5064.15C-1573.63 5131.09 -1493.82 5164.75 -1414.84 5150.6L-1276.94 5125.98C-1221.24 5116 -1163.99 5129.68 -1118.4 5163.98C-1027.84 5232.07 -854.561 5359.65 -624.322 5516.88C-562.952 5558.81 -490.55 5482.32 -533.35 5420.84L-735.986 5129.81C-892.157 4890 -1041.88 4634.98 -1176.77 4381.96C-1176.77 4381.96 -337.917 5509.38 881.227 6411.82C884.516 6414.24 888.596 6415.48 892.26 6417.27C1008.8 6475.01 1115.3 6322.59 1024.16 6228.42C1024.16 6228.42 -196.526 5002.45 -511.575 4088.81L-511.617 4088.85Z" fill="url(#paint0_linear_50_702)"/>
</g>
<defs>
<linearGradient id="paint0_linear_50_702" x1="-1460.93" y1="1287.25" x2="4897.11" y2="3548.38" gradientUnits="userSpaceOnUse">
<stop stop-color="#009B47"/>
<stop offset="0.04" stop-color="#00A344"/>
<stop offset="0.15" stop-color="#00B43E"/>
<stop offset="0.3" stop-color="#00C03A"/>
<stop offset="0.49" stop-color="#00C738"/>
<stop offset="1" stop-color="#00C938"/>
</linearGradient>
</defs>
</svg>
