<?xml version="1.0" encoding="utf-8"?>
<!-- Generator: Adobe Illustrator 24.2.1, SVG Export Plug-In . SVG Version: 6.00 Build 0)  -->
<svg version="1.1" id="Outline" xmlns="http://www.w3.org/2000/svg" xmlns:xlink="http://www.w3.org/1999/xlink" x="0px" y="0px"
	 viewBox="0 0 512 512" style="enable-background:new 0 0 512 512;" xml:space="preserve">
<style type="text/css">
	.st0{fill:#5BB574;}
</style>
<path class="st0" d="M38.6,226.5c-1.8,6.1-3.2,16,1.4,25.5c4.4,9,13,15.3,25.6,18.7c13.4,45.8,32.8,83.1,57.8,111
	c33,36.9,75.1,56.4,125.1,58.2l12.8,34.1l-30.8,6.2c-4.3,0.9-7.1,5.1-6.3,9.4s5.1,7.1,9.4,6.3l0,0l74-14.8l5.3,10.5
	c1.9,4,6.7,5.6,10.7,3.7s5.6-6.7,3.7-10.7c0,0,0-0.1-0.1-0.1l-8-16c-1.6-3.2-5.2-5-8.7-4.3l-33.3,6.7l-11.8-31.4
	c31.4-3.3,61.7-13.9,88.3-30.9c28.5-18.3,51.5-43.4,68.3-74.7c20-37.1,31.3-82.9,33.6-136.3c0.9-0.2,1.8-0.5,2.8-0.8
	c7-2.2,12.5-7.8,14.6-14.8c2.3-7.5,1-16.7-3.2-22.3L464,152h24c4.4,0,8-3.6,8-8c0-0.5-0.1-1.1-0.2-1.6
	c-4.9-24.7-20.5-33.8-32.7-37.1c-2.5-0.7-5-1.2-7.6-1.5c-0.3-1.6-0.6-3.2-1.1-4.9c7.6-4.2,13.3-11.2,15.9-19.5
	c2.4-7.3,1.2-15.3-3.3-21.4c-4.5-6.3-11.8-10-19.5-10h-0.9c-3.4-9.6-12.5-16-22.6-16h-1.4c-3.4-9.6-12.5-16-22.6-16h-16
	c-4.4,0-8,3.6-8,8v45.5c-25.1,12.8-35.3,45.1-42.5,68.2c-2.5,8-5.9,18.7-8.4,22.3H89.4l-62.6-23.5c-4.1-1.6-8.7,0.5-10.3,4.7
	c-0.2,0.5-0.3,1.1-0.4,1.7C15.7,145.2,8.5,198.6,38.6,226.5z M457.6,177.1c-0.6,2.1-2.3,3.8-4.4,4.4c-3.4,1.1-7.2,0.9-10.5-0.6
	c-2.3-0.9-4-2.9-4.6-5.2c-0.7-2.4-0.2-5,1.3-6.9l8.5-11.4l8.9,11.8C457.7,170.2,458.6,173.9,457.6,177.1z M459.4,120.8
	c7.9,2.1,14.5,7.6,17.8,15.2H448v-16.6C451.8,119.3,455.7,119.8,459.4,120.8z M392,32h8c4.4,0,8,3.6,8,8s3.6,8,8,8h8
	c4.4,0,8,3.6,8,8s3.6,8,8,8h7.5c2.6,0,5,1.2,6.5,3.3c1.5,2,1.9,4.7,1.1,7c-1.2,4.1-3.9,7.6-7.5,9.9c-0.7-1-1.5-2-2.3-3
	C435.6,69.8,420.3,64,400,64c-2.7,0-5.3,0.2-8,0.5V32z M348.8,142.5C359.5,108.3,370.7,80,400,80c15.8,0,34.5,4.4,39.3,24
	c-0.5,0.1-0.8,0.1-0.8,0.1c-3.7,0.7-6.4,4-6.4,7.8v32c0,2,0.7,3.8,2,5.3l-7.4,9.8c-8,10.6-5.8,25.6,4.8,33.6c1.6,1.2,3.3,2.2,5.2,3
	c1,0.4,2,0.8,2.9,1.1c-2.2,50.7-12.8,94.1-31.4,129c-15.4,28.9-36.5,52-62.5,68.9C301,423.5,256.4,424,256,424
	c-102.2,0-150.2-78.9-172.7-150l33.1,5.5c10.6,9.4,64.3,53.8,129.2,53.8c2.4,0,4.8-0.1,7.3-0.2c39.4-2,74.8-20.9,105.2-55.9
	c28.2-32.5,37.5-59.7,27.9-80.8c-6-13.1-18.7-22.9-38-29.1c-2.5-0.8-4.9-1.5-7.4-2.1C343.5,159.3,345.9,151.6,348.8,142.5z M296,176
	c46.5,0,69.4,14,75.4,27.1c6.7,14.7-2.1,36.8-25.4,63.7c-27.4,31.6-59,48.6-93.9,50.4c-54.5,2.9-103.3-31.9-120.2-45.6
	c19.3-18.7,79.3-75.4,118.1-95.6H296z M95.2,176h124.2c-37.9,26.1-81.9,67.7-98.4,83.8C111.5,245.9,92.6,213,95.2,176z M31.2,155.2
	l48.2,18.1c-3.1,36.8,12.1,69.2,23.3,87.7l-29.2-4.9c-10-2-16.4-5.8-19.1-11.1c-3.8-7.7,0.8-17.4,0.8-17.4c1.7-3.5,0.7-7.7-2.3-10
	C32.6,202.5,30.7,171.3,31.2,155.2z"/>
<circle class="st0" cx="408" cy="112" r="8"/>
</svg>
