<?xml version="1.0" encoding="utf-8"?>
<!-- Generator: Adobe Illustrator 24.2.1, SVG Export Plug-In . SVG Version: 6.00 Build 0)  -->
<svg version="1.1" id="Capa_1" xmlns="http://www.w3.org/2000/svg" xmlns:xlink="http://www.w3.org/1999/xlink" x="0px" y="0px"
	 viewBox="0 0 103.1 103.1" style="enable-background:new 0 0 103.1 103.1;" xml:space="preserve">
<style type="text/css">
	.st0{fill:#5BB574;}
</style>
<g>
	<path class="st0" d="M54.5,84.8h5.9v5.9h-5.9V84.8z"/>
	<path class="st0" d="M42.7,84.8h5.9v5.9h-5.9V84.8z"/>
	<path class="st0" d="M91.7,31.8C102,21.4,102.1,7.2,102.1,6.5V1.4l-4.4,2.5c-6,3.4-22.6,12.1-30.2,13c-2.5-2.3-5.8-3.7-9.5-3.7
		H45.1c-3.6,0-7,1.4-9.5,3.7C28,16.1,11.4,7.4,5.4,3.9L1,1.4v5.1c0,0.7,0.1,14.9,10.5,25.3c-3.7,2.7-6,6-6.2,6.2l-1.2,1.7l1.2,1.7
		c0.3,0.4,7.2,10,16.2,10c1,0,2-0.1,3.1-0.4c0.3,5,1.7,10,3.9,14.6c0.1,0.2,0.2,0.4,0.3,0.6c2.7,5.6,3.5,12.2,2.2,18.5l-0.4,2.1
		c-0.7,3.9,0.3,7.9,2.8,10.9s6.2,4.8,10.2,4.8h15.8c4,0,7.7-1.7,10.2-4.8s3.5-7,2.8-10.9l-0.4-2c-1.2-6.3-0.4-12.9,2.2-18.5
		c0.1-0.2,0.2-0.4,0.3-0.6c2.3-4.6,3.6-9.6,3.9-14.6c1,0.2,2.1,0.4,3.1,0.4c9.1,0,16-9.6,16.2-10l1.2-1.7L97.8,38
		C97.7,37.8,95.3,34.6,91.7,31.8z M86.2,28.8c-1.4-0.5-3-0.8-4.6-0.8c-2.5,0-5,0.7-7.6,2.1c0-0.1-0.1-0.1-0.1-0.2L72,26.5
		c-0.1-1.5-0.4-2.9-0.9-4.2c7.6-1.8,18.1-7,24.4-10.4C94.5,16.6,92.1,23.6,86.2,28.8z M7.6,11.9c6.3,3.3,16.8,8.5,24.4,10.4
		c-0.5,1.3-0.8,2.7-0.9,4.2L29.2,30c0,0.1-0.1,0.1-0.1,0.2C26.6,28.8,24,28,21.5,28c-1.6,0-3.2,0.3-4.6,0.8
		C11,23.6,8.6,16.6,7.6,11.9z M11.5,39.8c2-2.2,5.9-5.8,10-5.8c1.6,0,3.4,0.6,5.2,1.7c-1,3-1.7,6.1-2,9.2c-1.1,0.4-2.2,0.7-3.2,0.7
		C17.6,45.5,13.7,42.2,11.5,39.8L11.5,39.8z M30.7,44.4l1.1,0.9c3.1,2.3,5.3,5.5,6.4,9.3s1,7.6-0.3,11.3l-1.5,4.2
		c-0.5-2.1-1.3-4.2-2.2-6.2c-0.1-0.2-0.2-0.5-0.3-0.7C31,57.2,29.9,50.7,30.7,44.4L30.7,44.4z M65.1,94c-1.4,1.7-3.4,2.6-5.6,2.6
		H43.6c-2.2,0-4.2-1-5.6-2.6c-1.4-1.7-1.9-3.9-1.5-6l0.4-1.9l6.7-18.4c1.8-4.9,1.9-10,0.4-15s-4.4-9.2-8.5-12.3L32.1,38
		c0.6-1.8,1.3-3.5,2.3-5.2L37,28v-0.8c0-4.5,3.6-8.1,8.1-8.1H58c4.5,0,8.1,3.6,8.1,8.1V28l2.6,4.8c0.9,1.7,1.7,3.4,2.3,5.2l-3.3,2.5
		c-4.1,3.1-7.1,7.4-8.5,12.3c-1.5,4.9-1.3,10.1,0.4,15l6.7,18.4l0.4,1.9C67,90.1,66.5,92.3,65.1,94L65.1,94z M69.2,63.1
		c-0.1,0.2-0.2,0.4-0.3,0.7c-0.9,2-1.7,4.1-2.2,6.2l-1.5-4.2c-1.3-3.6-1.4-7.5-0.3-11.3c1.1-3.7,3.3-6.9,6.4-9.3l1.1-0.9
		C73.2,50.7,72.1,57.2,69.2,63.1L69.2,63.1z M81.6,45.5c-1,0-2.1-0.2-3.2-0.7c-0.3-3.1-1-6.2-2-9.2c1.8-1.1,3.5-1.7,5.2-1.7
		c3.9,0,7.8,3.3,10,5.8C89.6,41.9,85.7,45.5,81.6,45.5L81.6,45.5z"/>
</g>
</svg>
