<?xml version="1.0" encoding="utf-8"?>
<!-- Generator: Adobe Illustrator 24.2.1, SVG Export Plug-In . SVG Version: 6.00 Build 0)  -->
<svg version="1.1" id="Capa_1" xmlns="http://www.w3.org/2000/svg" xmlns:xlink="http://www.w3.org/1999/xlink" x="0px" y="0px"
	 viewBox="0 0 512 512" style="enable-background:new 0 0 512 512;" xml:space="preserve">
<style type="text/css">
	.st0{fill:#5BB574;}
</style>
<g>
	<g>
		<g>
			<path class="st0" d="M510.6,261.5c-42.6-76.3-112.7-123-194.9-131.7c-41.2-52-170.5-65.2-176-65.8c-3.6-0.4-7.3,1.2-9.5,4.2
				c-2.2,2.9-2.8,6.8-1.5,10.3c12.7,32.9,25.7,70.3,29.1,85.6c-23.5,10.7-44,22.2-57.2,31.7c-28.7-45.9-87.3-46.5-89.9-46.5
				C4.8,149.3,0,154.1,0,160c0,61.8,21.5,92.8,35.9,106.7C21.5,280.5,0,311.5,0,373.3c0,5.9,4.8,10.7,10.7,10.7
				c2.7,0,61.2-0.6,89.9-46.5c17.6,12.6,48,28.6,81.2,41.9c-7.3,11.9-11.1,30.7-11.1,57.9c0,5.9,4.8,10.7,10.7,10.7
				c3.2,0,75.7-0.6,111.8-43c91.9-1.8,171-49.9,217.5-133.1C512.4,268.6,512.4,264.7,510.6,261.5z M154.9,87.4
				c35.8,5.2,94.7,18,127.9,40.8c-30.7,1.2-69.8,12.8-105.2,27.3C172.9,136.8,162.4,107.5,154.9,87.4z M192.3,426.1
				c1.4-29.7,8.3-37.3,10.2-38.8c20.8,7.3,41.8,13.1,61,16C240.3,419.5,208.7,424.6,192.3,426.1z M201.2,386.9L201.2,386.9
				C201.2,386.8,201.3,386.8,201.2,386.9C201.2,386.8,201.3,386.9,201.2,386.9z M288,384c-62.3,0-164.3-51.2-183.1-70.5
				c-2-2.1-4.8-3.2-7.6-3.2c-0.6,0-1.3,0.1-1.9,0.2c-3.5,0.6-6.4,3-7.8,6.3c-14.4,33.4-48.3,42.5-65.8,45
				c3.3-66.8,35-84.7,36.6-85.6c3.5-1.8,5.7-5.4,5.7-9.4c0.1-4-2.2-7.7-5.7-9.6c-1.4-0.8-33.3-18.5-36.6-85.5
				c17.6,2.6,51.6,11.8,65.8,44.9c1.4,3.3,4.4,5.6,7.8,6.3c3.5,0.7,7.1-0.5,9.6-3c18.9-19.3,120.8-70.5,183.1-70.5
				c84.2,0,157.2,42.7,201,117.3C445.2,341.3,372.2,384,288,384z"/>
			<path class="st0" d="M320,266.7c0-49.1,19.4-79.1,19.6-79.4c3.2-4.9,1.9-11.5-3-14.8c-4.9-3.2-11.5-1.9-14.8,3
				c-0.9,1.4-23.1,35.3-23.1,91.3s22.2,89.8,23.1,91.3c2.1,3.1,5.4,4.8,8.9,4.8c2,0,4.1-0.6,5.9-1.8c4.9-3.3,6.2-9.9,3-14.8
				C339.3,345.8,320,316.2,320,266.7z"/>
			<path class="st0" d="M293.9,172.4c-4.9-3.2-11.5-1.9-14.8,3c-0.9,1.4-23.1,35.3-23.1,91.2c0,29.9,6.4,53.3,11.8,67.8
				c1.6,4.3,5.7,6.9,10,6.9c1.2,0,2.5-0.2,3.7-0.7c5.5-2.1,8.3-8.2,6.3-13.7c-4.8-12.8-10.5-33.6-10.5-60.3
				c0-49.1,19.4-79.1,19.6-79.4C300.1,182.3,298.8,175.7,293.9,172.4z"/>
			<circle class="st0" cx="384" cy="234.7" r="21.3"/>
		</g>
	</g>
</g>
</svg>
