<?xml version="1.0" encoding="utf-8"?>
<!-- Generator: Adobe Illustrator 24.2.1, SVG Export Plug-In . SVG Version: 6.00 Build 0)  -->
<svg version="1.1" id="Layer_1" xmlns="http://www.w3.org/2000/svg" xmlns:xlink="http://www.w3.org/1999/xlink" x="0px" y="0px"
	 viewBox="0 0 512 512" style="enable-background:new 0 0 512 512;" xml:space="preserve">
<style type="text/css">
	.st0{fill:#5BB574;}
</style>
<g>
	<g>
		<path class="st0" d="M252.4,219.7c-52.8,0-95.8,35.1-95.8,78.3s43,78.3,95.8,78.3s95.8-35.1,95.8-78.3
			C348.2,254.9,305.2,219.7,252.4,219.7z M252.4,361.4c-44.5,0-80.8-28.4-80.8-63.3s36.2-63.3,80.8-63.3s80.8,28.4,80.8,63.3
			S297,361.4,252.4,361.4z"/>
	</g>
</g>
<g>
	<g>
		<path class="st0" d="M228.7,276.9c-4.1,0-7.5,3.4-7.5,7.5v27.3c0,4.1,3.4,7.5,7.5,7.5s7.5-3.4,7.5-7.5v-27.3
			C236.2,280.3,232.9,276.9,228.7,276.9z"/>
	</g>
</g>
<g>
	<g>
		<path class="st0" d="M276.2,276.9c-4.1,0-7.5,3.4-7.5,7.5v27.3c0,4.1,3.4,7.5,7.5,7.5s7.5-3.4,7.5-7.5v-27.3
			C283.7,280.3,280.3,276.9,276.2,276.9z"/>
	</g>
</g>
<g>
	<g>
		<circle class="st0" cx="176.5" cy="205.1" r="13.5"/>
	</g>
</g>
<g>
	<g>
		<circle class="st0" cx="335.3" cy="205.1" r="13.5"/>
	</g>
</g>
<g>
	<g>
		<path class="st0" d="M508.8,103.2c-4.2-6.3-9.1-12.3-14.4-17.7c-2.9-2.9-7.7-3-10.6,0c-2.9,2.9-3,7.7,0,10.6
			c4.7,4.7,8.9,9.9,12.6,15.5c0.9,1.4,0.9,3.1,0.1,4.5c-7.4,12-29.8,41.9-78.8,61.5c-0.6,0.3-1.3,0.5-2,0.8
			c-9.2,3.6-16.9,3.2-23.5-1.2c-10.8-7.2-19.5-25.3-25.2-52.3c-5-23.9-6.3-49.2-6.7-62.1c-0.1-2.3,1.7-4.2,4-4.4
			c19-1,55.9-0.2,89,16.1c3.7,1.8,8.2,0.3,10-3.4c1.8-3.7,0.3-8.2-3.4-10c-36.1-17.7-75.8-18.6-96.3-17.6
			c-10.4,0.5-18.6,9.4-18.3,19.8c0,0.1,0,0.3,0,0.4c-28.9-12-60.4-18.3-93-18.3c-29.8,0-58.7,5.3-85.6,15.4
			c-0.9-9.3-8.6-16.8-18.1-17.3c-20.4-1-59.9-0.1-95.9,17.4c-3.7,1.8-5.3,6.3-3.5,10s6.3,5.3,10,3.5c32.9-16.1,69.6-16.8,88.6-15.9
			c2.3,0.1,4.1,2,4,4.4c-0.4,12.9-1.7,38.2-6.7,62.1c-5.6,27-14.3,45.1-25.2,52.3c-6.6,4.4-14.3,4.8-23.5,1.2
			c-0.7-0.3-1.3-0.5-2-0.8C45.4,157.9,23,128,15.6,116c-0.9-1.4-0.8-3.2,0.1-4.5c3.8-5.8,8.3-11.1,13.1-16c2.9-2.9,2.9-7.7,0-10.6
			s-7.7-2.9-10.6,0c-5.6,5.6-10.6,11.7-15,18.3c-4.1,6.2-4.3,14.3-0.4,20.7c5.5,8.9,18.4,26.7,42.4,43.9
			c-13.9,27.6-21.2,58-21.2,89.3c0,56.7,23.8,110,67.1,150C134.2,447,191.4,469,252.3,469c73.9,0,143.6-33.5,186.3-89.5
			c2.5-3.3,1.9-8-1.4-10.5s-8-1.9-10.5,1.4c-40,52.3-105.2,83.6-174.4,83.6C134.7,454,39,365.7,39,257.1c0-28.9,6.8-56.3,18.9-81
			c9,5.4,19.3,10.7,30.9,15.3c0.7,0.3,1.4,0.6,2.1,0.8c5.9,2.3,11.6,3.5,17.1,3.5c7.2,0,14-2.1,20.2-6.2
			c27.5-18.3,35.7-73.5,38-112.6c26.3-10.8,55.5-16.8,86.1-16.8c33.6,0,65.4,7.2,93.8,20.1c2.5,38.8,11,91.5,37.8,109.2
			c6.2,4.1,12.9,6.2,20.2,6.2c5.4,0,11.1-1.2,17.1-3.5c0.7-0.3,1.4-0.5,2.1-0.8c9.2-3.7,17.5-7.7,25.1-11.9
			c11.1,23.8,17.3,50.1,17.3,77.6c0,27.6-6.1,54.3-18,79.4c-1.8,3.7-0.2,8.2,3.5,10s8.2,0.2,10-3.5c12.9-27.1,19.5-56,19.5-85.8
			c0-29.9-6.7-58.9-19.3-85.5c27.6-18.3,42.1-38.2,48-47.8C513.1,117.5,512.9,109.4,508.8,103.2z"/>
	</g>
</g>
</svg>
